# xmcd
#
# Track frame offsets:
#	150
#	14710
#	30753
#	48249
#	60930
#	79251
#	100177
#	116492
#	133849
#	151541
#	168111
#	183494
#
# Disc length: 2632 seconds
#
# Revision: 0
# Processed by: cddbd v1.5.2PL0 Copyright (c) Steve Scherf et al.
# Submitted via: audiograbber 1.83.01
#
DISCID=860a460c
DTITLE=JonesTM - HC200809
DYEAR=2008
DGENRE=Country
TTITLE0=Codie Prevost - Spin
TTITLE1=Eddie Money - Gimme Some Water '08
TTITLE2=Dolly Parton - Jesus and Gravity [Radio Edit]
TTITLE3=Jeff Griffith - Holed Up In Some Honky Tonk
TTITLE4=Reba McEntire Duet With Skip Ewing - Every Other Weekend
TTITLE5=Point Of Grace - How You Live (Turn Up The Music) [Radio Edit]
TTITLE6=Trey Songz - Last Time [Radio Edit]
TTITLE7=Bradley Leighton Feat. Tom Scott - She's Gone
TTITLE8=Bradley Leighton Feat. Tom Braxton - It's On!
TTITLE9=Mindi Abair - Smile [Radio Edit]
TTITLE10=Jimmy Sommers - Kickin' It
TTITLE11=Jerry D - Back To Motown
EXTD=
EXTT0=
EXTT1=
EXTT2=
EXTT3=
EXTT4=
EXTT5=
EXTT6=
EXTT7=
EXTT8=
EXTT9=
EXTT10=
EXTT11=
PLAYORDER=
